<?xml version="1.0" encoding="utf-8"?>
<!-- Generator: Adobe Illustrator 15.0.0, SVG Export Plug-In . SVG Version: 6.00 Build 0)  -->
<!DOCTYPE svg PUBLIC "-//W3C//DTD SVG 1.1//EN" "http://www.w3.org/Graphics/SVG/1.1/DTD/svg11.dtd">
<svg version="1.1" id="Layer_1" xmlns="http://www.w3.org/2000/svg" xmlns:xlink="http://www.w3.org/1999/xlink" x="0px" y="0px"
	 width="576px" height="720px" viewBox="0 0 576 720" enable-background="new 0 0 576 720" xml:space="preserve">
<path fill-rule="evenodd" clip-rule="evenodd" fill="#274F7D" d="M128.46,334.7c-0.44,1.42-3.33,2.3-4.35,3.3
	c-2.82-1.75-5.09-4.05-7.12-6.59c2.29-3.47,5.31-6.22,8.7-8.58c1.07,1.06,2.55,4.25,2.77,7.39
	C128.56,331.5,128.81,333.61,128.46,334.7z"/>
<path fill-rule="evenodd" clip-rule="evenodd" fill="#274F7D" d="M155.21,356.78c-7.36,2.33-18.5,2.33-25.87,0
	c1.09-6.74,0.33-15.42,0.27-22.82c-0.04-4.73-0.16-9.21-2.64-12.01c2.25-1.45,5.45-1.94,8.18-2.91c2.06,2.95,7.61,4.6,11.48,2.38
	c1.18-0.67,1.8-1.57,2.77-2.38c2.83,0.83,5.81,1.5,8.31,2.65c-2.5,2.81-2.67,7.29-2.77,12
	C154.79,341.22,153.96,349.99,155.21,356.78z"/>
<path fill-rule="evenodd" clip-rule="evenodd" fill="#274F7D" d="M167.74,331.4c-1.73,3.02-4.24,5.26-7.12,7.13
	c-1.64-1-2.96-2.32-4.36-3.56c-0.36-5.29,0.65-9.21,2.64-12.14C162.6,324.93,165.24,328.1,167.74,331.4z"/>
<g>
	<path fill="none" stroke="#689AD3" stroke-width="0.5" stroke-miterlimit="10" d="M258.889,368.667"/>
</g>
<rect x="253.376" y="363.363" fill="none" width="231.295" height="18.539"/>
<text transform="matrix(1 0 0 1 253.376 373.3242)" font-family="'Existence-Light'" font-size="11.1539">screen printing communicated seamlessly</text>
<g>
	<g>
		<path fill-rule="evenodd" clip-rule="evenodd" fill="#FFFFFF" d="M155.21,356.78c-7.36,2.33-18.5,2.33-25.87,0
			c1.09-6.74,0.33-15.42,0.27-22.82c-0.04-4.73-0.16-9.21-2.64-12.01c2.25-1.45,5.45-1.94,8.18-2.91c2.06,2.95,7.61,4.6,11.48,2.38
			c1.18-0.67,1.8-1.57,2.77-2.38c2.83,0.83,5.81,1.5,8.31,2.65c-2.5,2.81-2.67,7.29-2.77,12
			C154.79,341.22,153.96,349.99,155.21,356.78z"/>
		<path fill-rule="evenodd" clip-rule="evenodd" fill="#FFFFFF" d="M167.74,331.4c-1.73,3.02-4.24,5.26-7.12,7.13
			c-1.64-1-2.96-2.32-4.36-3.56c-0.36-5.29,0.65-9.21,2.64-12.14C162.6,324.93,165.24,328.1,167.74,331.4z"/>
		<path fill-rule="evenodd" clip-rule="evenodd" fill="#FFFFFF" d="M128.46,334.7c-0.44,1.42-3.33,2.3-4.35,3.3
			c-2.82-1.75-5.09-4.05-7.12-6.59c2.29-3.47,5.31-6.22,8.7-8.58c1.07,1.06,2.55,4.25,2.77,7.39
			C128.56,331.5,128.81,333.61,128.46,334.7z"/>
	</g>
	<g>
		<path fill="#FFFFFF" d="M136.08,319.045c0.527,0.451,1.104,0.833,1.699,1.176c0.598,0.337,1.219,0.63,1.87,0.841
			c1.292,0.458,2.681,0.577,4.06,0.436c-0.674,0.164-1.377,0.238-2.078,0.199c-0.701-0.035-1.394-0.184-2.062-0.398
			C138.248,320.83,137.012,320.081,136.08,319.045z"/>
	</g>
	<g>
		<path fill="#FFFFFF" d="M118.075,333.933c0.394,0.452,0.806,0.883,1.222,1.309c0.419,0.423,0.841,0.841,1.292,1.226
			c0.883,0.794,1.844,1.493,2.898,2.062c-1.145-0.381-2.154-1.092-3.063-1.874C119.534,335.845,118.714,334.95,118.075,333.933z"/>
	</g>
	<g>
		<path fill="#FFFFFF" d="M134.528,358.535c1.706,0.294,3.425,0.483,5.146,0.627c1.723,0.13,3.451,0.175,5.176,0.116
			c1.725-0.032,3.449-0.166,5.153-0.442c1.7-0.287,3.386-0.691,5.013-1.281c-1.593,0.682-3.276,1.147-4.985,1.444
			c-1.708,0.306-3.44,0.471-5.175,0.528c-1.735,0.031-3.47-0.042-5.196-0.2C137.934,359.174,136.215,358.925,134.528,358.535z"/>
	</g>
</g>
<path fill="#274F7D" d="M172.35,302.7c-2.74-0.79-5.6,0.79-6.39,3.52c-0.46,1.58-0.13,3.2,0.76,4.44c-1.31,1.47-2.64,2.51-3.78,3.24
	c-2.94-2.57-6.42-4.62-10.34-5.98c-7.06-2.45-14.4-2.22-20.91,0.15c-1.04-0.83-1.77-1.87-2.29-2.88c2.31-1.36,4.17-3.51,5.12-6.25
	c2.11-6.09-1.12-12.74-7.21-14.85c-6.1-2.11-12.74,1.12-14.85,7.21c-2.11,6.1,1.12,12.74,7.21,14.85c2.52,0.87,5.13,0.83,7.47,0.06
	c0.6,1.36,0.8,2.78,0.87,3.48c-6.89,3.55-12.48,9.65-15.22,17.56c-1.78,5.15-2.15,10.44-1.29,15.46c-1.22,0.88-2.77,1.49-4.22,1.89
	c-1.24-2.83-3.91-4.94-7.2-5.3c-4.91-0.53-9.31,3.01-9.85,7.91c-0.54,4.91,3.01,9.32,7.91,9.85c4.9,0.53,9.31-3.01,9.85-7.91
	c0.12-1.13,0.03-2.23-0.25-3.26c1.64-0.58,3.08-0.8,4.25-0.85c2.47,9.92,9.75,18.44,20.13,22.03c1.02,0.359,2.05,0.649,3.08,0.89
	c-0.21,0.63-0.49,1.19-0.76,1.64c-5.36-1.109-10.61,2.311-11.75,7.67c-1.15,5.381,2.28,10.671,7.66,11.811
	c5.37,1.15,10.66-2.28,11.81-7.66c1-4.689-1.49-9.32-5.72-11.17c0.1-0.68,0.37-1.33,0.68-1.89c14.83,2.54,29.74-5.95,34.82-20.62
	c3.54-10.21,1.48-21.01-4.55-29.04c-0.66-0.88-1.36-1.72-2.11-2.53c0.55-1.65,1.52-3.14,2.54-4.37c0.49,0.36,1.04,0.64,1.66,0.82
	c2.74,0.8,5.6-0.77,6.4-3.52C176.67,306.37,175.09,303.5,172.35,302.7z M128.46,334.7c-0.44,1.42-3.33,2.3-4.35,3.3
	c-2.82-1.75-5.09-4.05-7.12-6.59c2.29-3.47,5.31-6.22,8.7-8.58c1.07,1.06,2.55,4.25,2.77,7.39
	C128.56,331.5,128.81,333.61,128.46,334.7z M129.34,356.78c1.09-6.74,0.33-15.42,0.27-22.82c-0.04-4.73-0.16-9.21-2.64-12.01
	c2.25-1.45,5.45-1.94,8.18-2.91c2.06,2.95,7.61,4.6,11.48,2.38c1.18-0.67,1.8-1.57,2.77-2.38c2.83,0.83,5.81,1.5,8.31,2.65
	c-2.5,2.81-2.67,7.29-2.77,12c-0.15,7.53-0.98,16.3,0.27,23.09C147.85,359.11,136.71,359.11,129.34,356.78z M167.74,331.4
	c-1.73,3.02-4.24,5.26-7.12,7.13c-1.64-1-2.96-2.32-4.36-3.56c-0.36-5.29,0.65-9.21,2.64-12.14
	C162.6,324.93,165.24,328.1,167.74,331.4z"/>
<rect x="179.083" y="305.54" fill="none" width="302.251" height="54.823"/>
<text transform="matrix(1 0 0 1 179.083 358.7456)"><tspan x="0" y="0" fill="#274F7D" font-family="'LibelSuit'" font-size="74">soc</tspan><tspan x="76.219" y="0" fill="#274F7D" font-family="'LibelSuit'" font-size="74" letter-spacing="-1">i</tspan><tspan x="85.986" y="0" fill="#274F7D" font-family="'LibelSuit'" font-size="74">a</tspan><tspan x="111.738" y="0" fill="#274F7D" font-family="'LibelSuit'" font-size="74" letter-spacing="4">l</tspan><tspan x="126.611" y="0" fill="#DE6D45" font-family="'LibelSuit'" font-size="74">th</tspan><tspan x="176.338" y="0" fill="#DE6D45" font-family="'LibelSuit'" font-size="74" letter-spacing="-3">r</tspan><tspan x="193.283" y="0" fill="#DE6D45" font-family="'LibelSuit'" font-size="74" letter-spacing="-2">e</tspan><tspan x="216.074" y="0" fill="#DE6D45" font-family="'LibelSuit'" font-size="74">ads</tspan></text>
</svg>
